<svg xmlns="http://www.w3.org/2000/svg" width="24" height="24" viewBox="0 0 24 24"><path fill="#999" d="M17.3668,13.5254a1.35,1.35,0,0,1-1.6465-.678c-.29-.6457-.0094-.9765.4605-1.342a13.4073,13.4073,0,0,0,1.2611-.8943,2.3734,2.3734,0,0,0,1.0226-2.4772c-.4438-1.3-1.6465-1.582-2.8733-1.4205a2.2874,2.2874,0,0,0-2.1953,2.4859c0,2.2276.0646,4.4875-.0323,6.7151-.1291,2.5182-2.8087,4.7458-5.3915,4.6489C5.1957,20.4665,2.9681,18.2066,3,14.8813c.0646-1.55,1.4528-2.8087,3.3576-3.6481.8071-.3551,1.5819-.3551,2.0339.5488.5166,1.0654-.3551,1.4205-1.0653,1.7434-1.4206.6134-2.1308,1.6142-1.4529,3.067a2.4942,2.4942,0,0,0,3.3576,1.1622,2.3325,2.3325,0,0,0,1.5819-2.55c-.0322-2.0339-.0322-4.0355,0-6.0694a4.71,4.71,0,0,1,3.39-4.7781,5.056,5.056,0,0,1,5.94,1.55c1.904,2.6737.4843,6.9411-2.7765,7.6191Z" fill-rule="evenodd"/></svg>