<svg xmlns="http://www.w3.org/2000/svg" viewBox="0 0 24 12"><title>logo</title><path d="M23.7652,4.4229a1.8742,1.8742,0,0,0-.4174-.6506,1.7759,1.7759,0,0,0-.6224-.4013,2.1342,2.1342,0,0,0-.7727-.1377,2.4044,2.4044,0,0,0-1.0183.2232,2.6418,2.6418,0,0,0-.6.3848l.0922-.47a.9379.9379,0,0,0-.3958-.09,1.087,1.087,0,0,0-.6916.2707,2.6982,2.6982,0,0,0-.62.774v-.56a.429.429,0,0,0-.1288-.349.544.544,0,0,0-.3577-.1068h-.7631l-.1208.9895c-.0037-.0137-.0063-.0288-.01-.0422a1.6526,1.6526,0,0,0-.2862-.5817,1.1127,1.1127,0,0,0-.4365-.3348,1.4207,1.4207,0,0,0-.5581-.1068,1.6371,1.6371,0,0,0-.8872.2612,2.8151,2.8151,0,0,0-.7536.717V3.7653a.429.429,0,0,0-.1288-.349.5442.5442,0,0,0-.3577-.1068H13.167l-.13,1.0781a1.8631,1.8631,0,0,0-.4014-.6151,1.7764,1.7764,0,0,0-.6225-.4013,2.1338,2.1338,0,0,0-.7727-.1377,2.4044,2.4044,0,0,0-1.0183.2232,2.663,2.663,0,0,0-.8514.622,2.8989,2.8989,0,0,0-.4113.5832,2.0122,2.0122,0,0,0-.0752-.2389,1.8739,1.8739,0,0,0-.4173-.6506,1.776,1.776,0,0,0-.6224-.4013,2.1339,2.1339,0,0,0-.7727-.1377,2.4043,2.4043,0,0,0-1.0183.2232,2.6635,2.6635,0,0,0-.8514.622,3.01,3.01,0,0,0-.5669.9083,1.3506,1.3506,0,0,0-.2034-.2863,1.6758,1.6758,0,0,0-.4054-.3086,4.406,4.406,0,0,0-.4626-.2184q-.2361-.0949-.46-.1757A2.8839,2.8839,0,0,1,2.7,3.82a.9737.9737,0,0,1-.2861-.2255.4788.4788,0,0,1-.1074-.3182.9187.9187,0,0,1,.0548-.3229.704.704,0,0,1,.1646-.2564A.7618.7618,0,0,1,2.8,2.5259a1.0927,1.0927,0,0,1,.3839-.0617,1.1051,1.1051,0,0,1,.415.0712,1.9762,1.9762,0,0,1,.3124.1567q.136.0855.2457.1567a.4.4,0,0,0,.2194.0712.365.365,0,0,0,.1979-.0522.6082.6082,0,0,0,.1646-.1662l.4674-.6363A1.7935,1.7935,0,0,0,4.8677,1.74a2.344,2.344,0,0,0-.4436-.2588A2.6968,2.6968,0,0,0,3.9019,1.31a2.6551,2.6551,0,0,0-.5748-.0617,2.6577,2.6577,0,0,0-1.04.1947,2.405,2.405,0,0,0-.787.5223A2.3241,2.3241,0,0,0,.8278,3.6038a1.8451,1.8451,0,0,0,.1073.672,1.4122,1.4122,0,0,0,.68.7644,3.8916,3.8916,0,0,0,.4579.2018q.2337.0855.4579.1591a2.3952,2.3952,0,0,1,.3982.1686.8131.8131,0,0,1,.2814.2326.7265.7265,0,0,1,.1126.3467.8239.8239,0,0,1-.2414.7.9507.9507,0,0,1-.67.2351,1.1956,1.1956,0,0,1-.4984-.0926,2.0213,2.0213,0,0,1-.3554-.2042q-.1527-.1115-.279-.2042a.4356.4356,0,0,0-.26-.0926.43.43,0,0,0-.2.0523.4813.4813,0,0,0-.1622.133l-.5533.7218a1.983,1.983,0,0,0,.4054.37,2.9713,2.9713,0,0,0,.5175.2873,3.1558,3.1558,0,0,0,.5819.1875A2.8084,2.8084,0,0,0,2.211,8.31a2.8088,2.8088,0,0,0,1.09-.2018,2.4709,2.4709,0,0,0,.8228-.5461,2.3477,2.3477,0,0,0,.3949-.5393c.0107.0325.02.0663.032.0977a1.8457,1.8457,0,0,0,.415.6505,1.77,1.77,0,0,0,.6248.4013,2.1519,2.1519,0,0,0,.7751.1377A2.3839,2.3839,0,0,0,7.3838,8.084a2.6778,2.6778,0,0,0,.8514-.6267,2.9344,2.9344,0,0,0,.409-.5811,2.0365,2.0365,0,0,0,.0751.2439,1.8458,1.8458,0,0,0,.415.6505,1.77,1.77,0,0,0,.6248.4013,2.1522,2.1522,0,0,0,.7751.1377,2.3838,2.3838,0,0,0,1.0184-.2256,2.6772,2.6772,0,0,0,.8514-.6267,2.8826,2.8826,0,0,0,.3115-.4114l-.4,3.31h1.4605l.2689-2.4122a1.4814,1.4814,0,0,0,.4293.2659,1.4474,1.4474,0,0,0,.5532.1,1.7648,1.7648,0,0,0,.9134-.2587,2.6792,2.6792,0,0,0,.77-.7,3.3879,3.3879,0,0,0,.3314-.5436l-.1741,1.4268h1.45l.2671-2.2127a2.5733,2.5733,0,0,1,.46-1.0613.8427.8427,0,0,1,.6436-.3292,3.29,3.29,0,0,0-.19.3957,3.2417,3.2417,0,0,0-.217,1.2037,2.4485,2.4485,0,0,0,.15.89,1.846,1.846,0,0,0,.4149.6505,1.77,1.77,0,0,0,.6249.4013,2.1515,2.1515,0,0,0,.7751.1377,2.3837,2.3837,0,0,0,1.0183-.2256,2.6776,2.6776,0,0,0,.8514-.6267,3.0577,3.0577,0,0,0,.5843-.95,3.217,3.217,0,0,0,.2171-1.1943A2.4155,2.4155,0,0,0,23.7652,4.4229ZM7.4839,6.0564a2.3576,2.3576,0,0,1-.21.603,1.2136,1.2136,0,0,1-.3314.4084.7116.7116,0,0,1-.4436.15.5152.5152,0,0,1-.4746-.235A1.5058,1.5058,0,0,1,5.8789,6.22a3.5174,3.5174,0,0,1,.0739-.736,2.3149,2.3149,0,0,1,.21-.603,1.2192,1.2192,0,0,1,.3315-.4061.711.711,0,0,1,.4436-.15.5186.5186,0,0,1,.4746.23,1.5031,1.5031,0,0,1,.1455.7669A3.49,3.49,0,0,1,7.4839,6.0564Zm4.1687,0a2.359,2.359,0,0,1-.21.603,1.2136,1.2136,0,0,1-.3315.4084.7114.7114,0,0,1-.4436.15.5152.5152,0,0,1-.4746-.235,1.5056,1.5056,0,0,1-.1455-.7622,3.5182,3.5182,0,0,1,.074-.736,2.3144,2.3144,0,0,1,.21-.603,1.2192,1.2192,0,0,1,.3315-.4061.711.711,0,0,1,.4436-.15.5186.5186,0,0,1,.4746.23,1.5029,1.5029,0,0,1,.1455.7669A3.4894,3.4894,0,0,1,11.6526,6.0564Zm4.2308-.0831a2.5027,2.5027,0,0,1-.2457.6339,1.51,1.51,0,0,1-.3744.4487.751.751,0,0,1-.4746.1709,1.1911,1.1911,0,0,1-.322-.0475.8672.8672,0,0,1-.3076-.1567l.1478-1.1871a3.4514,3.4514,0,0,1,.2266-.5793,2.9472,2.9472,0,0,1,.2909-.4725,1.4857,1.4857,0,0,1,.322-.3181.564.564,0,0,1,.32-.1163.42.42,0,0,1,.3673.2137,1.296,1.296,0,0,1,.1384.6838A3.0125,3.0125,0,0,1,15.8834,5.9733Zm6.4819.0831a2.36,2.36,0,0,1-.21.603,1.2146,1.2146,0,0,1-.3315.4084.7114.7114,0,0,1-.4436.15.5152.5152,0,0,1-.4746-.235A1.5057,1.5057,0,0,1,20.76,6.22a3.5191,3.5191,0,0,1,.074-.736,2.3153,2.3153,0,0,1,.21-.603,1.2184,1.2184,0,0,1,.3315-.4061.7109.7109,0,0,1,.4436-.15.5186.5186,0,0,1,.4746.23,1.503,1.503,0,0,1,.1455.7669A3.4894,3.4894,0,0,1,22.3652,6.0564Z"/></svg>