<?xml version="1.0" encoding="utf-8"?>
<!-- Generator: Adobe Illustrator 18.1.1, SVG Export Plug-In . SVG Version: 6.00 Build 0)  -->
<!DOCTYPE svg PUBLIC "-//W3C//DTD SVG 1.1//EN" "http://www.w3.org/Graphics/SVG/1.1/DTD/svg11.dtd" [
	<!ENTITY ns_extend "http://ns.adobe.com/Extensibility/1.0/">
	<!ENTITY ns_ai "http://ns.adobe.com/AdobeIllustrator/10.0/">
	<!ENTITY ns_graphs "http://ns.adobe.com/Graphs/1.0/">
	<!ENTITY ns_vars "http://ns.adobe.com/Variables/1.0/">
	<!ENTITY ns_imrep "http://ns.adobe.com/ImageReplacement/1.0/">
	<!ENTITY ns_sfw "http://ns.adobe.com/SaveForWeb/1.0/">
	<!ENTITY ns_custom "http://ns.adobe.com/GenericCustomNamespace/1.0/">
	<!ENTITY ns_adobe_xpath "http://ns.adobe.com/XPath/1.0/">
]>
<svg version="1.1" id="Layer_1" xmlns:x="&ns_extend;" xmlns:i="&ns_ai;" xmlns:graph="&ns_graphs;"
	 xmlns="http://www.w3.org/2000/svg" xmlns:xlink="http://www.w3.org/1999/xlink" x="0px" y="0px" viewBox="0 0 60 24"
	 enable-background="new 0 0 60 24" xml:space="preserve">
<metadata><?xpacket begin="﻿" id="W5M0MpCehiHzreSzNTczkc9d"?>
<x:xmpmeta xmlns:x="adobe:ns:meta/" x:xmptk="Adobe XMP Core 5.6-c014 79.156821, 2014/08/29-03:07:50        ">
   <rdf:RDF xmlns:rdf="http://www.w3.org/1999/02/22-rdf-syntax-ns#">
      <rdf:Description rdf:about=""
            xmlns:xmp="http://ns.adobe.com/xap/1.0/"
            xmlns:xmpGImg="http://ns.adobe.com/xap/1.0/g/img/"
            xmlns:xmpTPg="http://ns.adobe.com/xap/1.0/t/pg/"
            xmlns:stDim="http://ns.adobe.com/xap/1.0/sType/Dimensions#"
            xmlns:xmpG="http://ns.adobe.com/xap/1.0/g/"
            xmlns:dc="http://purl.org/dc/elements/1.1/"
            xmlns:xmpMM="http://ns.adobe.com/xap/1.0/mm/"
            xmlns:stEvt="http://ns.adobe.com/xap/1.0/sType/ResourceEvent#">
         <xmp:CreatorTool>Adobe Illustrator CC 2014 (Macintosh)</xmp:CreatorTool>
         <xmp:CreateDate>2015-05-26T17:25:08+08:00</xmp:CreateDate>
         <xmp:MetadataDate>2015-05-26T17:25:08+08:00</xmp:MetadataDate>
         <xmp:ModifyDate>2015-05-26T17:25:08+08:00</xmp:ModifyDate>
         <xmp:Thumbnails>
            <rdf:Alt>
               <rdf:li rdf:parseType="Resource">
                  <xmpGImg:width>256</xmpGImg:width>
                  <xmpGImg:height>100</xmpGImg:height>
                  <xmpGImg:format>JPEG</xmpGImg:format>
                  <xmpGImg:image>/9j/4AAQSkZJRgABAgEASABIAAD/7QAsUGhvdG9zaG9wIDMuMAA4QklNA+0AAAAAABAASAAAAAEA&#xA;AQBIAAAAAQAB/+4ADkFkb2JlAGTAAAAAAf/bAIQABgQEBAUEBgUFBgkGBQYJCwgGBggLDAoKCwoK&#xA;DBAMDAwMDAwQDA4PEA8ODBMTFBQTExwbGxscHx8fHx8fHx8fHwEHBwcNDA0YEBAYGhURFRofHx8f&#xA;Hx8fHx8fHx8fHx8fHx8fHx8fHx8fHx8fHx8fHx8fHx8fHx8fHx8fHx8fHx8f/8AAEQgAZAEAAwER&#xA;AAIRAQMRAf/EAaIAAAAHAQEBAQEAAAAAAAAAAAQFAwIGAQAHCAkKCwEAAgIDAQEBAQEAAAAAAAAA&#xA;AQACAwQFBgcICQoLEAACAQMDAgQCBgcDBAIGAnMBAgMRBAAFIRIxQVEGE2EicYEUMpGhBxWxQiPB&#xA;UtHhMxZi8CRygvElQzRTkqKyY3PCNUQnk6OzNhdUZHTD0uIIJoMJChgZhJRFRqS0VtNVKBry4/PE&#xA;1OT0ZXWFlaW1xdXl9WZ2hpamtsbW5vY3R1dnd4eXp7fH1+f3OEhYaHiImKi4yNjo+Ck5SVlpeYmZ&#xA;qbnJ2en5KjpKWmp6ipqqusra6voRAAICAQIDBQUEBQYECAMDbQEAAhEDBCESMUEFURNhIgZxgZEy&#xA;obHwFMHR4SNCFVJicvEzJDRDghaSUyWiY7LCB3PSNeJEgxdUkwgJChgZJjZFGidkdFU38qOzwygp&#xA;0+PzhJSktMTU5PRldYWVpbXF1eX1RlZmdoaWprbG1ub2R1dnd4eXp7fH1+f3OEhYaHiImKi4yNjo&#xA;+DlJWWl5iZmpucnZ6fkqOkpaanqKmqq6ytrq+v/aAAwDAQACEQMRAD8A9U4qtkkjijaSRgkaAs7s&#xA;aAAbkknElXnPmT80JS722hqFQbG9kFSf9RDsPm33ZgZdX0i4eTU9IsIvdX1S+YteXcs9ezuxH0Ct&#xA;BmJKcjzLjGZPMoQEqQQaEdCMgxTnS/OHmLTWHoXjvGOsMx9RCPCjVp9FMthnnHkWyOWQ6vSfKfnu&#xA;x1si1nUW2o0r6VapJTqUJ/4ifxzYYdQJ7Hm5mLOJbdWUZkN7sVdirsVdirsVdirsVdirsVdirsVd&#xA;irsVdirsVdirsVdirsVdirsVdirsVdirsVeafmd5mke4/Qls9Io6NeEftMd1T5Abn3+Wa/V5d+EO&#xA;Fqcn8Ief5hOKm+i+Vdc1lS9lb8oVNDO5CJXwBPX6Mtx4ZS5M4YpS5I+//LrzRaRGUQLcKu7CBuTD&#xA;/Ynix+gZOWmmGctPIMaZGRirgqymjKRQgjxzHaWa/lx5Wa9vF1a5Ui0tXBgHTnKu4PyT9f05l6XD&#xA;Z4jyDk6fFZsvVc2TnOxV2KuxV2KuxV2KuxV2KuxV2KuxV2KuxV2KuxV2KuxV2KuxV2KuxV2KuxV2&#xA;KtMwVSzGgAqT7DFXz7f3cl5fXF3IavPI0jV/yiTmklKzbqZGzaHyKH0Jp9lb2VlBaW4CwwIESngB&#xA;1+Z65u4xAFB20RQpXySUp1Typ5f1SYT3tmskwpWRSyMafzFCvL6cqnhjLchrlijLmEytrW3tbeO3&#xA;t41igiHGONRQADLAABQZgVsFTClJdR85+WtPcxz3yNKNjHEDKQfA8AQPpymWeEeZapZojqlw/Mzy&#xA;qSAZJQPExn+GQ/NwY/mYJ3pfmHRdVB+oXaTMBUx7q4Hjwajfhl0MsZci2RyRlyKYZNm7FVK6u7W0&#xA;hM11MkES9ZJGCr95wGQHNBIHNj1x+Y3lSF+IummI6mONyPvIX8MoOqgOrUdRB1v+Y3lSZ+BuWhJ6&#xA;GSNwPvAP44jVQPVRqIMitrq2uYVmtpUmhb7MkbBlP0jLwQeTaCDyQ+qaxpulxJNfziCORuCMQxq1&#xA;K0+EHIzmI80SmI80uHnrymSANRSp23VwPvK5D8xDvYeNDvTqGaGeJZoXWSJxySRCCpB7gjLQbbAb&#xA;Qmqa5pOloHv7pIKiqqTVyP8AJQVY/QMjPJGPMolMR5pH/wArM8q8qerLStOXpNT5+OU/m4NX5mCe&#xA;6XrWlarEZbC5SdV+0BUMtf5lNGH0jLoZIy5FtjMS5LtT1fTdLgWe/nEETtwViCasQTT4QewwzmI7&#xA;lZTEeaWDz35TJp+kU3/yZP8AmnK/zEO9h48O9O4J4Z4kmhdZYpBySRCGUg9wRloNtgNoLVPMOi6V&#xA;T6/dpAzbhN2cjx4KGan0ZGeWMeZYyyRjzKnpXmfQtWkeKwu1mkReTJxdCFFATRwu2+CGWMuRWOSM&#xA;uRQ+oed/LFixSW+R5B1SEGU18KoCo+k5GWogOrGWaI6oFfzM8qlgDLKoPcxNQfdXIfm4MfzME70z&#xA;XtH1Ra2F3HOQKlAaOB4lGow+7LoZIy5FsjMS5FH5NmtlQvE6DYspA+kYCpfO7KysVYUZTQg9iM0b&#xA;qGsVZ15Z/Myayhjs9Vja4gjASO4SnqKo2AYHZvnWvzzMxaqtpOTj1FbFn+leY9E1VR9Ru0kelTEf&#xA;hkH+wajZmwyxlyLlxyRlyKZZYzUL6+tbG0lu7qQRQQjk7nw/qe2CUgBZRKQAsvI/NHnvUtYkeG3Z&#xA;rXTtwsKmjOPGQjrX+Xp8+uavNqDLlsHX5c5l7mL5jtLsVXxSywyLLE7RyIeSOpIYEdwRhBpQXq/k&#xA;HzlJq8bWF+wOoQrySTp6qDr/ALJe+bLTZ+LY83PwZuLY80w83eb7XQLcKoE2oSisMBOwHTm9P2f1&#xA;5PNnEB5ssuUQ97yLVdZ1LVbk3F9O0z/sg/ZUeCr0AzWTmZGy4EpmR3QWQYuxVM9C8w6lot2J7OQh&#xA;SR6sDfYkHgw/jlmPKYGwzhkMTsyf8xNdtdW0rRp7U/u5vVkdD1Vl4rxPuCTmRqcglEEN2omJAUwX&#xA;MNxmcaV51/Qvk6C1tyJdRkkl9NW3WJC32iPnWgzMhn4MdDm5Mc3DChzYbd3d1d3D3F1K008hq8jm&#xA;pOYhkSbLjkk7lRwIRmlapeaXfRXto/CWM9OzL3Vh3ByUJmJsJjIxNhmv5kavFqGi6LNDtHd85+Pg&#xA;VVRQ/IuRmZqp8UY+bk6idxDz7MFxWdaJ5uOieSQkbB7+WeVLVDuEWilnI8AW298zMebgx+bkwy8M&#xA;PNhNxcT3M7z3EjSzSHk8jGpJ9zmISSbLjE26OeaNXWN2RZV4SBSRyWtaGnUVGIK2p4FdiqpBPNbz&#xA;JNBI0UqGqSISGB9iMINclBp635E84HWrdrS8IGo261LDYSp0508R+1mz0+fjFHm7DBl4tjzZZmS3&#xA;vI/zC8rT6fqUmowIWsLti7MBtHIx+JWp0BO6/dms1OExNjkXAz4qN9GIZiuO7FW1dkYMhKspqrA0&#xA;II8MVZt5U/Ma9tJY7TV3NzZsQouG3lj9yerr413/AFZl4dURtLk5OLUEbHks/MjzL9f1AabbScrK&#xA;1oXKmoeUjr8lBp8646rLxGhyCNRks0OTC8xHHZ55G8hQahbLqeqqTbP/ALzW4JXmAftsRvTwGZun&#xA;04kLk5WHBYssj1/8vtCudNm+o2wtrxELQPGTQsBUKwJpQ9MvyaaJGw3bp4Ikbc3kGat16M0jUpdN&#xA;1O2v4t2t5A5WtOS9GWv+UtRk4S4SCyhLhNrdT1G61K/mvbpuU0zcj4AdlHsBsME5GRsolIk2VOzt&#xA;Li8u4rW3XnPOwSNfcmmCMSTQUCzT1vRvy60CytVW8hF7dEfvZXJ418FUGgH45s4aWIG+5c+GniBv&#xA;uxL8w/KVlpBgvdPQx207GOSKpYK9OQ4k1PxAHb2zG1OER3Dj6jEI7hheYjjtlmKhSTxBJA7Amlf1&#xA;Yq1iqvY2VzfXkVpbJ6k8zBUX39/YdTkoxJNBMYkmg9W0n8tNAtrMJfRm8umH7yUs6qD3CBSu3z3z&#xA;Yw0sQN9y50dPEDfd5z5q0MaLrU1krF4aCSBm6lG6V9wajMHNj4JU4mWHDKkoyprRdzfvPp9naMfh&#xA;tPUCfKRg368kZWAO5JlYAQmRQvjjklkSONS8jkKiKKkknYADCFbuLeW3nkglAEsTFJFBBow2IqNt&#xA;sSKNKRSngV6F5I8gWt3ZpqeroXSYcra1qVBXs7kUO/YeGZ2n0wIuTl4cAIspx5n8g6JLpVxNYWwt&#xA;ryCNpIzGTRuIqVZSab5bl00THYbtmTBGtubyXNY4CZ+W9SfTddsrtTRUlUSe8bfC4/4EnLMUuGQL&#xA;PHKpAveM3LtFskUcsbRyoHjcUdGAKkHsQcSLWmH6x+WGi3ZaSxdrGU78R8cVf9UkEfQfozFnpInl&#xA;s489NE8tmFaz5B8w6WjSmIXVuu7SwEtQeLKQGH3UzDnppR83GnglFjeUNLsVdiqvY2rXd7b2qmjX&#xA;EqRKfd2C/wAclEWaTEWafQNvBFbwRwRLxiiUJGo7KooBm6AoU7UCl+FL54uABPIB05tSnzzRnm6g&#xA;qeBXYqzj8qdOWfV7m+cVFpGFT2eUkV/4FWGZmjjcie5ydLGzb1PNi5zD/wA0wv8AhqOvUXMfH58H&#xA;zF1n0fFx9T9LyTNY4DsVdir0v8q9CVLebWZVq8pMNtXsin42HzO30HNho8e3E5mmh/E9AzNct5P+&#xA;axU+Y4AOotEB+fqSHNbrPr+Dgar6vgwzMRx3Yq7FWbeR7COy0fU/M0ygyWsbx2IboJOO7b+5C/fm&#xA;Xp41Ez7nJwxoGTCmZmYsxJYmpJ3JJzEcZFaRYm/1S0sx/wAfEqRsfAMwBP0DJQjZATCNkB7/ABxp&#xA;GixoAqIAqqOgA2Azdh2zUvD035/Y4nl8qb4lS+ds0TqHYq+i83rt3Yq7FXYq8Z/MLT7ey8zzrAAq&#xA;TKsxRegZh8X3kV+nNVqYgT2ddnjUmNZjtLsVTnycobzRpoO49dT9I3GW4PrDZh+oPcs3Ds0Lqt4t&#xA;lpl3dsaehE8g+aqSB9+RnKgSxkaBL5+zSOqdirsVem/lIo+oag1NzKgJ9gp/rmw0XIubpeRZ9ma5&#xA;TAPzbvVFnYWIPxSSNOw7gIvEffzOYWtlsA4mqOwDzPNe4bsVdir3jyxbLbeXdNiApS3jZgP5nUM3&#xA;4nNziFQHudpjFRCZ5YzeJ+edRW/8z3kiGscTCBD1/uxxP/DVzUaiVzLrc0rkUgylqbIIND1xVrFX&#xA;qGp24svyqSJAQZIYHanYzSpI1f8AgqZsZisLmyFYnl+a5wmQeQYxJ5u09T0DSN47rE7D9WX6YesN&#xA;uD6w9rzbOyS7zFerY6FfXTGnpwvw7fGw4oPpYjIZZVElhklUSXguaV1aO0Sya+1iztAK+tMit7Ly&#xA;HI/QMnjjcgGUBZAek+f/ADk+loNN0+TjfyCs0o3MSHpT/Kb8B9GZ+pz8Ow5uZnzcOw5sH0fzv5g0&#xA;25EpupLuImssE7s4YHrQtUqfcZiQ1EonnbjQzSBek6R5+8uahEC9ytnNT44bghKH2c/CR9OZ8NTC&#xA;XWnMhnifJX1Hzr5asbcytfRXDfsxW7rK7Hw+EkD6cMs8AOaZZojq8g17WJtX1a41CUcDKfgj68UU&#xA;UVfuGavJPilbr5z4jaAVWZgqgszGiqNySewyDFrFUbot+NP1ezvWBKW8yO4HUqD8Q+7J45cMgWUJ&#xA;UQXvVvcQXECTwOssMgDRyKagg9wc3IIO4doDbz38yfNltLAdFsZBJVg15Ipqo4mqxgjqa7nMHVZg&#xA;RwhxNRlH0h51mC4iubK6FkL0xkWpk9ES9i4HKn3ZLhNX0TRq1DIoZ9+VOr28F1d6dM4Rrng9vU0q&#xA;y1DKPcginyzN0cwCQ5WlnRIejXt9aWNs9zdyrDBGKs7Gg+Q8T7ZnykALLmGQAsvE/NWvPresS3lC&#xA;sIAjt0PURr0r7mtTmozZOOVutyz4jaT5U1uxVsCppir6Esmt2tITbSLLAEAjkQhlIApsRXN5Gq2d&#xA;sOWzHvOvm+20aykt7eQNqcylYo1NTGCP7xvCnbxyjPmERQ5tObKIjzeOEkmp3J6nNU69M/LWiyaz&#xA;rNvZKD6bHlOw/ZiXdj/Ae+WYsfFKmeOHEaQN3Ikl1NIgAR5GZQNgASSMhI7sDzUgCTQdcCva/M+m&#xA;tJ5NurKMVMNupVR/xRxegp/qZt8sP3ZHk7LJH0EPE81DrUy8uajHpuu2V7J/dQygyHrRG+Fj9AOW&#xA;YpcMgWeOVSBe7xSxSxrLE6vG45K6kFSD3BGbgG3aAvNvzJ81290q6PYyCSNG53cqmqll+zGD3odz&#xA;75garMD6Q4Woy3sHn+YTis//ACs0FpLqXWZlpFCDFbE93YfGw/1V2+nM3SY9+JytNDfiSPzj5Z1f&#xA;TNQmubktc287l1vetSx6P/K34eGU58Uomy1ZsZibLHMoanYq7FWwCTQbk9Bir0nyB5Hlt5U1fVI+&#xA;Eq72lu3VSf23HY/yjM/TaevUXMwYa3LHfPXlWXSNRe5gQ/o25YtEwGyMdzGfD/J9so1GHhNjk058&#xA;XCb6MXzHaVVLm4SMxpK6xt9pFYgH5gYbK2VLAqdeWvK2oa7dBIVMdqhHr3LD4VHgPFvbLsWEzPk2&#xA;Y8RkXqmp+U9PufLR0S3URRxqDbOdysi7hz/rGvL5nNjPCDDhDnSxAx4XjN9Y3dhdyWl3GYp4jR0P&#xA;6x4g9jmqlEg0XXSiQaKgCQajrkUL5bi4mAEsryBfs82LU+VcJJKkqeBWc+XPJstrpl1r2qRlDb28&#xA;stpbNs3JUJDuD0/yRmZiwUDKTk48NDiLBsw3GdiqtBeXduCIJ5Ig32gjMte29DhEiOSQSFJmZmLM&#xA;SzHck7knAhUtbW5u7iO3to2lnlPFI1FSThAJNBQCdg9b0Hy3H5Z8u3s8hD37QPLcSjooRCwRfYfj&#xA;mzx4vDgT1dhDHwRPe8fzVuvRmjwfWNWsoOvq3ESf8E4GTgLkAygLIe/kAih3B6jN07V4t508rzaJ&#xA;qTmNCdPnYtbSDotd/TPuv4jNTnw8B8nW5sfCfJjuUNSqtzcLEYlldYm6xhiFNfbphsrZUsCp95V8&#xA;pX2vXQoDFYIf39yRt/qpXq36suw4TM+TbixGR8ns9lZW1jaRWlqgjghXjGg8P6nvm2jEAUHYxAAo&#xA;KkkUcsbRyoHjYUZGAII8CDhITTFNV/LPy/eM0ltzsZTvSI8o6/6jfwIzGnpInls48tNE8tmPy/lJ&#xA;fAn0dQicdi6Mh/AvlB0R72o6U96rbflHMWrc6koXwjjJJ+lmFPuwjRd5SNL3llWh+SdA0dllghM1&#xA;yvS4mPNh/qigVfoFcyceCMeTfDDGKfZc2qdxbW9zA8FxGssMgo8bgFSPcHAQDsUEWwnVPyp02dzJ&#xA;p909pXf0nHqp8gaqw+knMSejB5GnGlpQeSVj8pNS5b38IXxCsT92V/kj3sPyp7040r8q9It3WS/n&#xA;e9Yb+mB6Uf0gFmP/AAWWw0cRz3bI6YDnuzK3tre2hSC3jWGFBRI0AVQPYDMoADYOQBSphSleueWd&#xA;I1qILfQ1kXaOdPhkX5N4ex2yvJijPmwnjEubDLv8o5OZNpqIKHossZBH+yU7/dmIdF3Fxjpe4qdv&#xA;+Ud2WH1jUY0Xv6cZY/iVwDRHqUDSnqWVaF5G0HSHWaOM3F0u4nmoxB/yVACr91ffMnHp4x97fDDG&#xA;Kp55n9HypqL1pWMJ/wAjHVP+NsOoNQKcxqBeI5qHWp55L0+31DzLaWtzGJbd/UMqHoQsbHt7jLsE&#xA;RKYBbMMbkAWX6n+U0Dyl9OvDDGf90zLzp8nBBp8xmVPRjoXIlpe4oW1/KS5Lj61qCKn7QiQsT8ix&#xA;XIjRHqUDSnqWaaD5W0fRIyLOKszCj3EnxSN9PYewzKx4Yw5ORDEI8kZqtj+kNNubL1DELmNozIBU&#xA;gMKHaoyc48QIZSjYphH/ACqK3/6ub/8AIof81Zh/kh3uN+VHei9J/LK30/Ura++vtKbdxIIzGFBK&#xA;9Nw2ThpBEg2yjpgDds2zLclRu7O1vLd7e6iWaCQUeNxUHBKIIooIB2LCdT/KjT5XL6ddvbA7+jIv&#xA;qqPYNVWH01zEnoweRcaWlHQpav5Salyo1/CF23CsT77bfryv8ke9h+VPenWlflbo1syyX0z3rjfh&#xA;T04/pAJY/wDBZbDSRHPdsjpojnuzGGGGCJYYUWKJBRI0AVQPAAZlAU5AFL8KXYq7FXYq7FXYq7FX&#xA;Yq7FXYq7FXYq7FXYq7FXYq7FWJfmhP6fljh/v6eNPuDP/wAaZjas+hx9SfS8hzVuAzD8rYPU8zM/&#xA;++beR/vKp/xtmVpB6/g5GmHqet5s3PdirsVdirsVdirsVdirsVdirsVdirsVdirsVdirsVdirsVd&#xA;irsVdirsVdirsVdirsVdirsVYD+bk/Gy06D/AH5LI9P9RQP+N8wtadgHE1R2DzLNe4bP/wAo4K3u&#xA;oz/77jjT/g2J/wCNMzdENyXK0o3L0zNg5rsVdirsVdirsVdirsVdirsVdirsVdirsVdirsVdirsV&#xA;dirsVdirsVdirsVdirsVdirsVdirDfzA/wAMetZfpv61y4yeh9W40pVeXLl9GYmp4NuK3Gz8O3Ex&#xA;L/kGn/ax/wCSeY37nzaP3XmzL8v/APDfpXv6E+sU5R+v9Z41rRuPHj9OZem4N+FyMHDvwstzJch2&#xA;KuxV2KuxV2KuxV2KuxV2KuxV2KuxV//Z</xmpGImg:image>
               </rdf:li>
            </rdf:Alt>
         </xmp:Thumbnails>
         <xmpTPg:MaxPageSize rdf:parseType="Resource">
            <stDim:w>60.000000</stDim:w>
            <stDim:h>24.000000</stDim:h>
            <stDim:unit>Pixels</stDim:unit>
         </xmpTPg:MaxPageSize>
         <xmpTPg:NPages>1</xmpTPg:NPages>
         <xmpTPg:HasVisibleTransparency>False</xmpTPg:HasVisibleTransparency>
         <xmpTPg:HasVisibleOverprint>False</xmpTPg:HasVisibleOverprint>
         <xmpTPg:PlateNames>
            <rdf:Seq>
               <rdf:li>Cyan</rdf:li>
               <rdf:li>Magenta</rdf:li>
               <rdf:li>Yellow</rdf:li>
               <rdf:li>Black</rdf:li>
            </rdf:Seq>
         </xmpTPg:PlateNames>
         <xmpTPg:SwatchGroups>
            <rdf:Seq>
               <rdf:li rdf:parseType="Resource">
                  <xmpG:groupName>Default Swatch Group</xmpG:groupName>
                  <xmpG:groupType>0</xmpG:groupType>
                  <xmpG:Colorants>
                     <rdf:Seq>
                        <rdf:li rdf:parseType="Resource">
                           <xmpG:swatchName>PANTONE P 155-5 U</xmpG:swatchName>
                           <xmpG:type>PROCESS</xmpG:type>
                           <xmpG:tint>100.000000</xmpG:tint>
                           <xmpG:mode>RGB</xmpG:mode>
                           <xmpG:red>126</xmpG:red>
                           <xmpG:green>173</xmpG:green>
                           <xmpG:blue>100</xmpG:blue>
                        </rdf:li>
                     </rdf:Seq>
                  </xmpG:Colorants>
               </rdf:li>
            </rdf:Seq>
         </xmpTPg:SwatchGroups>
         <dc:format>image/svg+xml</dc:format>
         <xmpMM:DocumentID>xmp.did:a5944684-a712-409f-a517-c2a865ecc29a</xmpMM:DocumentID>
         <xmpMM:InstanceID>xmp.iid:a5944684-a712-409f-a517-c2a865ecc29a</xmpMM:InstanceID>
         <xmpMM:OriginalDocumentID>xmp.did:a5944684-a712-409f-a517-c2a865ecc29a</xmpMM:OriginalDocumentID>
         <xmpMM:History>
            <rdf:Seq>
               <rdf:li rdf:parseType="Resource">
                  <stEvt:action>saved</stEvt:action>
                  <stEvt:instanceID>xmp.iid:a5944684-a712-409f-a517-c2a865ecc29a</stEvt:instanceID>
                  <stEvt:when>2015-05-26T17:25:08+08:00</stEvt:when>
                  <stEvt:softwareAgent>Adobe Illustrator CC 2014 (Macintosh)</stEvt:softwareAgent>
                  <stEvt:changed>/</stEvt:changed>
               </rdf:li>
            </rdf:Seq>
         </xmpMM:History>
      </rdf:Description>
   </rdf:RDF>
</x:xmpmeta>
                                                                                                    
                                                                                                    
                                                                                                    
                                                                                                    
                                                                                                    
                                                                                                    
                                                                                                    
                                                                                                    
                                                                                                    
                                                                                                    
                                                                                                    
                                                                                                    
                                                                                                    
                                                                                                    
                                                                                                    
                                                                                                    
                                                                                                    
                                                                                                    
                                                                                                    
                                                                                                    
                           
<?xpacket end="w"?>
	</metadata>
<path fill="#7FAE65" d="M49.5,9.7c-0.2-0.4-0.4-0.8-0.7-1.1c-0.3-0.3-0.6-0.5-1-0.7c-0.4-0.2-0.8-0.2-1.3-0.2
	c-0.6,0-1.2,0.1-1.7,0.4c-0.2,0.1-0.4,0.2-0.5,0.3l0.1-0.4c-0.2-0.1-0.4-0.2-0.7-0.2c-0.4,0-0.8,0.2-1.2,0.5c-0.4,0.3-0.7,0.7-1,1.3
	V8.6c0-0.3-0.1-0.5-0.2-0.6c-0.1-0.1-0.3-0.2-0.6-0.2h-1.3l-0.3,2.7c0-0.4-0.1-0.8-0.2-1.1c-0.1-0.4-0.3-0.7-0.5-1
	C38.3,8.2,38,8,37.7,7.9c-0.3-0.1-0.6-0.2-0.9-0.2c-0.5,0-1,0.1-1.5,0.4c-0.5,0.3-0.9,0.7-1.3,1.2V8.6c0-0.3-0.1-0.5-0.2-0.6
	c-0.1-0.1-0.3-0.2-0.6-0.2H32l-0.2,1.8c-0.2-0.4-0.4-0.7-0.7-1c-0.3-0.3-0.6-0.5-1-0.7c-0.4-0.2-0.8-0.2-1.3-0.2
	c-0.6,0-1.2,0.1-1.7,0.4c-0.5,0.2-1,0.6-1.4,1c-0.3,0.3-0.5,0.6-0.7,1c0-0.1-0.1-0.3-0.1-0.4c-0.2-0.4-0.4-0.8-0.7-1.1
	c-0.3-0.3-0.6-0.5-1-0.7c-0.4-0.2-0.8-0.2-1.3-0.2c-0.6,0-1.2,0.1-1.7,0.4c-0.5,0.2-1,0.6-1.4,1c-0.4,0.4-0.7,0.9-0.9,1.5
	c-0.1-0.2-0.2-0.3-0.3-0.5c-0.2-0.2-0.4-0.4-0.7-0.5c-0.3-0.1-0.5-0.3-0.8-0.4c-0.3-0.1-0.5-0.2-0.8-0.3c-0.2-0.1-0.5-0.2-0.7-0.3
	c-0.2-0.1-0.4-0.2-0.5-0.4C14,8.2,13.9,8,13.9,7.8c0-0.2,0-0.4,0.1-0.5c0.1-0.2,0.2-0.3,0.3-0.4c0.1-0.1,0.3-0.2,0.5-0.3
	c0.2-0.1,0.4-0.1,0.6-0.1c0.3,0,0.5,0,0.7,0.1c0.2,0.1,0.4,0.2,0.5,0.3C16.7,6.9,16.9,7,17,7.1c0.1,0.1,0.2,0.1,0.4,0.1
	c0.1,0,0.2,0,0.3-0.1C17.8,7,17.9,6.9,18,6.8l0.8-1.1c-0.2-0.2-0.3-0.4-0.6-0.5c-0.2-0.2-0.5-0.3-0.7-0.4c-0.3-0.1-0.6-0.2-0.9-0.3
	c-0.3-0.1-0.6-0.1-1-0.1c-0.6,0-1.2,0.1-1.7,0.3c-0.5,0.2-1,0.5-1.3,0.9c-0.4,0.4-0.6,0.8-0.8,1.3c-0.2,0.5-0.3,1-0.3,1.5
	c0,0.4,0.1,0.8,0.2,1.1c0.1,0.3,0.3,0.6,0.5,0.8c0.2,0.2,0.4,0.4,0.7,0.5c0.2,0.1,0.5,0.2,0.8,0.3c0.3,0.1,0.5,0.2,0.8,0.3
	c0.2,0.1,0.5,0.2,0.7,0.3c0.2,0.1,0.4,0.2,0.5,0.4c0.1,0.2,0.2,0.3,0.2,0.6c0,0.4-0.1,0.9-0.4,1.2c-0.4,0.3-0.6,0.4-1.1,0.4
	c-0.3,0-0.6-0.1-0.8-0.2c-0.2-0.1-0.4-0.2-0.6-0.3c-0.2-0.1-0.3-0.2-0.5-0.3c-0.1-0.1-0.3-0.2-0.4-0.2c-0.1,0-0.2,0-0.3,0.1
	c-0.1,0.1-0.2,0.1-0.3,0.2l-0.9,1.2c0.2,0.2,0.4,0.4,0.7,0.6c0.3,0.2,0.6,0.3,0.9,0.5c0.3,0.1,0.6,0.2,1,0.3c0.3,0.1,0.7,0.1,1,0.1
	c0.7,0,1.3-0.1,1.8-0.3c0.5-0.2,1-0.5,1.4-0.9c0.3-0.3,0.5-0.6,0.7-0.9c0,0.1,0,0.1,0.1,0.2c0.2,0.4,0.4,0.8,0.7,1.1
	c0.3,0.3,0.6,0.5,1,0.7c0.4,0.2,0.8,0.2,1.3,0.2c0.6,0,1.2-0.1,1.7-0.4c0.5-0.3,1-0.6,1.4-1c0.3-0.3,0.5-0.6,0.7-1
	c0,0.1,0.1,0.3,0.1,0.4c0.2,0.4,0.4,0.8,0.7,1.1c0.3,0.3,0.6,0.5,1,0.7c0.4,0.2,0.8,0.2,1.3,0.2c0.6,0,1.2-0.1,1.7-0.4
	c0.5-0.3,1-0.6,1.4-1c0.2-0.2,0.4-0.4,0.5-0.7l-0.7,5.5H33l0.4-4c0.2,0.2,0.4,0.3,0.7,0.4c0.3,0.1,0.6,0.2,0.9,0.2
	c0.5,0,1-0.1,1.5-0.4c0.5-0.3,0.9-0.7,1.3-1.2c0.4-0.5,0.7-1.1,0.9-1.7c0-0.1,0-0.1,0.1-0.2l-0.4,3.4h2.4l0.4-3.7
	c0.2-0.8,0.5-1.4,0.8-1.8c0.2-0.2,0.4-0.4,0.6-0.5c-0.1,0.2-0.2,0.4-0.3,0.6c-0.2,0.6-0.4,1.3-0.4,2c0,0.6,0.1,1.1,0.3,1.5
	c0.2,0.4,0.4,0.8,0.7,1.1c0.3,0.3,0.6,0.5,1,0.7c0.4,0.2,0.8,0.2,1.3,0.2c0.6,0,1.2-0.1,1.7-0.4c0.5-0.3,1-0.6,1.4-1
	c0.4-0.4,0.7-1,1-1.6c0.2-0.6,0.4-1.3,0.4-2C49.8,10.6,49.7,10.1,49.5,9.7z M22.5,12.4c-0.1,0.4-0.2,0.7-0.3,1
	c-0.2,0.3-0.3,0.5-0.6,0.7c-0.2,0.2-0.5,0.3-0.7,0.3c-0.4,0-0.6-0.1-0.8-0.4c-0.2-0.3-0.2-0.7-0.2-1.3c0-0.4,0-0.8,0.1-1.2
	c0.1-0.4,0.2-0.7,0.3-1c0.2-0.3,0.3-0.5,0.6-0.7c0.2-0.2,0.5-0.3,0.7-0.3c0.4,0,0.6,0.1,0.8,0.4c0.2,0.3,0.2,0.7,0.2,1.3
	C22.6,11.6,22.6,12,22.5,12.4z M29.5,12.4c-0.1,0.4-0.2,0.7-0.3,1c-0.2,0.3-0.3,0.5-0.6,0.7c-0.2,0.2-0.5,0.3-0.7,0.3
	c-0.4,0-0.6-0.1-0.8-0.4c-0.2-0.3-0.2-0.7-0.2-1.3c0-0.4,0-0.8,0.1-1.2c0.1-0.4,0.2-0.7,0.3-1c0.2-0.3,0.3-0.5,0.6-0.7
	c0.2-0.2,0.5-0.3,0.7-0.3c0.4,0,0.6,0.1,0.8,0.4c0.2,0.3,0.2,0.7,0.2,1.3C29.6,11.6,29.6,12,29.5,12.4z M36.5,12.3
	c-0.1,0.4-0.2,0.8-0.4,1.1c-0.2,0.3-0.4,0.6-0.6,0.8c-0.2,0.2-0.5,0.3-0.8,0.3c-0.2,0-0.3,0-0.5-0.1c-0.2-0.1-0.4-0.1-0.5-0.3l0.2-2
	c0.1-0.3,0.2-0.7,0.4-1c0.2-0.3,0.3-0.6,0.5-0.8c0.2-0.2,0.4-0.4,0.5-0.5c0.2-0.1,0.4-0.2,0.5-0.2c0.3,0,0.5,0.1,0.6,0.4
	c0.2,0.2,0.2,0.6,0.2,1.1C36.7,11.5,36.6,11.9,36.5,12.3z M47.2,12.4c-0.1,0.4-0.2,0.7-0.3,1c-0.2,0.3-0.3,0.5-0.6,0.7
	c-0.2,0.2-0.5,0.3-0.7,0.3c-0.4,0-0.6-0.1-0.8-0.4c-0.2-0.3-0.2-0.7-0.2-1.3c0-0.4,0-0.8,0.1-1.2c0.1-0.4,0.2-0.7,0.3-1
	c0.2-0.3,0.3-0.5,0.6-0.7c0.2-0.2,0.5-0.3,0.7-0.3c0.4,0,0.6,0.1,0.8,0.4c0.2,0.3,0.2,0.7,0.2,1.3C47.3,11.6,47.3,12,47.2,12.4z"/>
</svg>
