<svg xmlns="http://www.w3.org/2000/svg" xmlns:xlink="http://www.w3.org/1999/xlink" width="24" height="1248" viewBox="0 0 24 1248"><svg width="24" height="24" viewBox="0 0 24 24" id="ic_megaphone_24px" y="0"><path d="M5.5112,19.2242a1.36,1.36,0,0,0,1.1029,1.575l1.8679.3294a1.36,1.36,0,0,0,1.5751-1.1029l.6336-3.5325L6.3237,14.677Z"/><path d="M5.92,8.6705,3.6712,7.707a.9015.9015,0,0,0-1.2565.8286v4.3163a.9015.9015,0,0,0,1.2565.8287L5.92,12.7171l.2583.1074,4.367,1.8161,5.5338,2.3015V4.4454Z"/><path d="M19.2373,3.132,17.75,3.7505V17.637l1.4873.6186a1.0629,1.0629,0,0,0,1.471-.9814V4.1133A1.0628,1.0628,0,0,0,19.2373,3.132Z"/></svg><svg width="24" height="24" viewBox="0 0 24 24" id="ic_superscript_24px" y="24"><path d="M5.389 18.895l1.111-3.703h5.106l1.111 3.703h2.191l-3.703-12.342h-4.305l-3.703 12.342h2.192zM8.351 9.021h1.403l1.111 3.703h-3.625l1.111-3.703zM15.224 18.895l3.086-4.937 3.086 4.937h-6.171z"/><path d="M18.309 5.318h-1.234c-0.34 0-0.617-0.277-0.617-0.617s0.277-0.617 0.617-0.617h2.468c0.341 0 0.617-0.276 0.617-0.617s-0.276-0.617-0.617-0.617h-2.468c-1.021 0-1.851 0.831-1.851 1.851 0 0.474 0.179 0.906 0.473 1.234 0.339 0.378 0.831 0.617 1.378 0.617h1.234c0.34 0 0.617 0.277 0.617 0.617s-0.277 0.617-0.617 0.617h-2.468c-0.341 0-0.617 0.276-0.617 0.617s0.276 0.617 0.617 0.617h2.468c1.021 0 1.851-0.831 1.851-1.851 0-0.474-0.179-0.906-0.473-1.234-0.339-0.378-0.831-0.617-1.378-0.617z"/></svg><svg width="24" height="24" viewBox="0 0 24 24" id="ic_subscript_24px" y="48"><path d="M5.214 17.326l1.139-3.796h5.234l1.139 3.796h2.246l-3.796-12.652h-4.413l-3.796 12.652h2.246zM8.25 7.204h1.438l1.139 3.796h-3.716l1.139-3.796zM21.622 4.674l-3.163 5.061-3.163-5.061h6.326z"/><path d="M18.459 17.326h-1.265c-0.349 0-0.633-0.284-0.633-0.633s0.284-0.633 0.633-0.633h2.53c0.349 0 0.633-0.283 0.633-0.633s-0.283-0.633-0.633-0.633h-2.53c-1.046 0-1.898 0.851-1.898 1.898 0 0.486 0.184 0.929 0.485 1.265 0.348 0.388 0.852 0.633 1.413 0.633h1.265c0.349 0 0.633 0.284 0.633 0.633s-0.284 0.633-0.633 0.633h-2.53c-0.349 0-0.633 0.283-0.633 0.633s0.283 0.633 0.633 0.633h2.53c1.046 0 1.898-0.851 1.898-1.898 0-0.486-0.184-0.929-0.485-1.265-0.348-0.388-0.852-0.633-1.413-0.633z"/></svg><svg width="24" height="24" viewBox="0 0 24 24" id="ic_paragraph_24px" y="72"><path d="M10.040 3.659h7.841v1.96h-1.96v13.721h-1.96v-13.721h-1.96v13.721h-1.96v-7.841c-2.165 0-3.92-1.755-3.92-3.92s1.755-3.92 3.92-3.92z"/></svg><svg width="24" height="24" viewBox="0 0 24 24" id="ic_page_break_24px" y="96"><path d="M5 9v-6h14v6h-2v-4h-10v4h-2z"/><path d="M19 15v6h-14v-6h2v4h10v-4h2z"/><path d="M4 11h4v2h-4v-2z"/><path d="M10 11h4v2h-4v-2z"/><path d="M16 11h4v2h-4v-2z"/></svg><svg width="24" height="24" viewBox="0 0 24 24" id="ic_html_code_24px" y="120"><path d="M15.201 15.735l1.601 1.601 5.336-5.336-5.336-5.336-1.601 1.601 3.735 3.735z"/><path d="M8.799 8.265l-1.601-1.601-5.336 5.336 5.336 5.336 1.601-1.601-3.735-3.735z"/><path d="M13.022 5.973l1.158 0.316-3.201 11.739-1.158-0.316 3.201-11.739z"/></svg><svg width="24" height="24" viewBox="0 0 24 24" id="ic_discount_24px" y="144"><path d="M22.74,13.2425l-.3411-.4656a1.4678,1.4678,0,0,1-.0139-1.71l.332-.47A1.4675,1.4675,0,0,0,22.21,8.4569l-.5071-.272A1.4612,1.4612,0,0,1,20.9511,6.65l.0968-.5671a1.4644,1.4644,0,0,0-1.3831-1.7058l-.5763-.0231a1.47,1.47,0,0,1-1.3462-1.0557l-.1614-.5533a1.4614,1.4614,0,0,0-1.9871-.9359l-.53.2259a1.4611,1.4611,0,0,1-1.669-.3688L13.012,1.237a1.4614,1.4614,0,0,0-2.1946.0185l-.378.4333a1.4659,1.4659,0,0,1-1.6644.3919L8.24,1.8594a1.4678,1.4678,0,0,0-1.9732.9682l-.1522.5579A1.456,1.456,0,0,1,4.787,4.46l-.5763.0323A1.4636,1.4636,0,0,0,2.8553,6.2209l.106.567a1.4616,1.4616,0,0,1-.7284,1.5445L1.73,8.6137a1.463,1.463,0,0,0-.47,2.1438l.3411.4656a1.4678,1.4678,0,0,1,.0139,1.71l-.332.47A1.4675,1.4675,0,0,0,1.79,15.5431l.5071.272A1.4612,1.4612,0,0,1,3.0489,17.35l-.0968.5671a1.4644,1.4644,0,0,0,1.3831,1.7058l.5763.0231a1.47,1.47,0,0,1,1.3462,1.0557l.1614.5533a1.4614,1.4614,0,0,0,1.9871.9359l.53-.2259a1.4611,1.4611,0,0,1,1.669.3688l.3826.4288a1.4614,1.4614,0,0,0,2.1946-.0185l.378-.4333a1.4659,1.4659,0,0,1,1.6644-.3919l.5348.2213a1.4678,1.4678,0,0,0,1.9732-.9682l.1522-.5579A1.456,1.456,0,0,1,19.213,19.54l.5763-.0323a1.4636,1.4636,0,0,0,1.3554-1.7289l-.106-.567a1.4616,1.4616,0,0,1,.7284-1.5445l.5026-.2813A1.4616,1.4616,0,0,0,22.74,13.2425ZM6.7372,10.089a2.2684,2.2684,0,1,1,2.2683,2.2683A2.2667,2.2667,0,0,1,6.7372,10.089ZM9.4435,15.94a.5547.5547,0,0,1-.7791.0738h0a.5548.5548,0,0,1-.0738-.7792l5.952-7.1692a.5534.5534,0,0,1,.853.7054Zm5.5417.2351a2.2683,2.2683,0,1,1,2.2684-2.2683A2.2667,2.2667,0,0,1,14.9852,16.1747Z"/></svg><svg width="24" height="24" viewBox="0 0 24 24" id="ic_clipboard_24px" y="168"><path d="M19,2H14.82A2.9881,2.9881,0,0,0,9.18,2H5A2.0059,2.0059,0,0,0,3,4V20a2.0059,2.0059,0,0,0,2,2H19a2.0059,2.0059,0,0,0,2-2V4A2.0059,2.0059,0,0,0,19,2ZM12,2a1,1,0,1,1-1,1A1.0029,1.0029,0,0,1,12,2Zm7,18H5V4H7V7H17V4h2Z"/><path d="M7.6275,15.9879V17.81H9.45l5.3741-5.3741-1.8221-1.8221Zm8.6054-4.9611a.484.484,0,0,0,0-.6852l-1.137-1.137a.484.484,0,0,0-.6852,0l-.8892.8892,1.8222,1.8222Z"/></svg><svg width="24" height="24" viewBox="0 0 24 24" id="ic_calculate_24px" y="192"><path d="M3.3333,2A1.3356,1.3356,0,0,0,2,3.3333v8h9.3333V2ZM8.6667,7.3333H7.3333V8.6667A.6667.6667,0,0,1,6,8.6667V7.3333H4.6667A.6667.6667,0,1,1,4.6667,6H6V4.6667a.6667.6667,0,1,1,1.3333,0V6H8.6667a.6667.6667,0,0,1,0,1.3333Z"/><path d="M2,12.6667v8A1.3347,1.3347,0,0,0,3.3333,22h8V12.6667ZM8.8053,19.472a.6695.6695,0,0,1-.944,0L6.6667,18.276,5.472,19.4707a.6666.6666,0,1,1-.944-.9414l1.196-1.196L4.5293,16.1387a.6666.6666,0,1,1,.9427-.9427l1.1947,1.1947L7.8613,15.196a.6666.6666,0,1,1,.9427.9427L7.6093,17.3333,8.804,18.528A.6676.6676,0,0,1,8.8053,19.472Z"/><path d="M12.6667,12.6667V22h8A1.3338,1.3338,0,0,0,22,20.6667v-8ZM19.472,19.472a.6695.6695,0,0,1-.944,0l-3.3333-3.3333a.6666.6666,0,0,1,.9426-.9427l3.3334,3.3333A.666.666,0,0,1,19.472,19.472Z"/><path d="M20.6667,2h-8v9.3333H22v-8A1.3347,1.3347,0,0,0,20.6667,2ZM19.3333,7.3333h-4a.6667.6667,0,0,1,0-1.3333h4a.6667.6667,0,1,1,0,1.3333Z"/></svg><svg width="24" height="24" viewBox="0 0 24 24" id="ic_gender_male_24px" y="216"><path d="M12.93,5.8369h4.0844L13.8925,8.9591a6.6653,6.6653,0,1,0,1.4139,1.4142L18.4287,7.251v4.0844h2V3.8369H12.93Zm.313,11.7588a4.6487,4.6487,0,1,1,1.3613-3.2871A4.6523,4.6523,0,0,1,13.2432,17.5957Z"/></svg><svg width="24" height="24" viewBox="0 0 24 24" id="ic_gender_female_24px" y="240"><path d="M20.1416,10.6982l1.4141-1.414L18.9849,6.7134,20.8486,4.85l-1.414-1.4141L17.5708,5.2993,15,2.7285,13.5859,4.1426l2.5708,2.5708L13.9031,8.967a6.6646,6.6646,0,1,0,1.4112,1.417l2.2565-2.2566Zm-6.8984,6.8975a4.6487,4.6487,0,1,1,1.3613-3.2871A4.6547,4.6547,0,0,1,13.2432,17.5957Z"/></svg><svg width="24" height="24" viewBox="0 0 24 24" id="ic_money_24px" y="264"><path fill="none" d="M0 0h24v24H0V0z"/><path d="M5 8h2v8H5zm7 0H9c-.55 0-1 .45-1 1v6c0 .55.45 1 1 1h3c.55 0 1-.45 1-1V9c0-.55-.45-1-1-1zm-1 6h-1v-4h1v4zm7-6h-3c-.55 0-1 .45-1 1v6c0 .55.45 1 1 1h3c.55 0 1-.45 1-1V9c0-.55-.45-1-1-1zm-1 6h-1v-4h1v4z"/><path fill="none" d="M4 6h16v12H4z"/><path d="M2 4v16h20V4H2zm2 14V6h16v12H4z"/>
</svg><svg width="24" height="24" viewBox="0 0 24 24" id="ic_screen_off_24px" y="288"><path d="M1,3.27,2.53,4.8A1.9831,1.9831,0,0,0,1,6.73v12a2.0059,2.0059,0,0,0,2,2H18.46l2,2,1.26-1.27L2.27,2ZM3,18.73v-12H4.46l12,12Zm4.52-14,2,2H21V18.21l1.65,1.65A1.99,1.99,0,0,0,23,18.73v-12a1.9931,1.9931,0,0,0-2-2Z"/></svg><svg width="24" height="24" viewBox="0 0 24 24" id="ic_delete_outline_24px" y="312"><path d="M6 19c0 1.1.9 2 2 2h8c1.1 0 2-.9 2-2V7H6v12zM8 9h8v10H8V9zm7.5-5l-1-1h-5l-1 1H5v2h14V4z"/><path fill="none" d="M0 0h24v24H0V0z"/></svg><svg width="24" height="24" viewBox="0 0 24 24" id="ic_apply_to_list_24px" y="336"><rect x="10" y="15" width="7" height="2"/><rect x="10" y="12" width="7" height="2"/><rect x="7" y="12" width="2" height="2"/><rect x="7" y="15" width="2" height="2"/><path d="M20.1,3H15V5h4V19H5V5H9V3H3.9a.8963.8963,0,0,0-.9.9V20.1a.9667.9667,0,0,0,.9.9H20.1a1.0607,1.0607,0,0,0,.9-.9V3.9A.9667.9667,0,0,0,20.1,3Z"/><polygon points="12 11 15 7.01 13 7.01 13 5.51 13 5 13 3 11 3 11 5 11 5.51 11 7.01 9 7.01 12 11"/></svg><svg width="24" height="24" viewBox="0 0 24 24" id="ic_vertical_split_24px" y="360"><path fill="none" d="M0 0h24v24H0V0z"/><path d="M3 15h8v-2H3v2zm0 4h8v-2H3v2zm0-8h8V9H3v2zm0-6v2h8V5H3zm10 0h8v14h-8V5z"/></svg></svg>