<svg xmlns="http://www.w3.org/2000/svg" xmlns:xlink="http://www.w3.org/1999/xlink" width="24" height="1248" viewBox="0 0 24 1248"><svg width="24" height="24" viewBox="0 0 24 24" id="ic_code_24px" y="0"><path d="M15.201 15.735l1.601 1.601 5.336-5.336-5.336-5.336-1.601 1.601 3.735 3.735z"/><path d="M8.799 8.265l-1.601-1.601-5.336 5.336 5.336 5.336 1.601-1.601-3.735-3.735z"/></svg><svg width="24" height="24" viewBox="0 0 24 24" id="ic_superscript_24px" y="24"><path d="M5.389 18.895l1.111-3.703h5.106l1.111 3.703h2.191l-3.703-12.342h-4.305l-3.703 12.342h2.192zM8.351 9.021h1.403l1.111 3.703h-3.625l1.111-3.703zM15.224 18.895l3.086-4.937 3.086 4.937h-6.171z"/><path d="M18.309 5.318h-1.234c-0.34 0-0.617-0.277-0.617-0.617s0.277-0.617 0.617-0.617h2.468c0.341 0 0.617-0.276 0.617-0.617s-0.276-0.617-0.617-0.617h-2.468c-1.021 0-1.851 0.831-1.851 1.851 0 0.474 0.179 0.906 0.473 1.234 0.339 0.378 0.831 0.617 1.378 0.617h1.234c0.34 0 0.617 0.277 0.617 0.617s-0.277 0.617-0.617 0.617h-2.468c-0.341 0-0.617 0.276-0.617 0.617s0.276 0.617 0.617 0.617h2.468c1.021 0 1.851-0.831 1.851-1.851 0-0.474-0.179-0.906-0.473-1.234-0.339-0.378-0.831-0.617-1.378-0.617z"/></svg><svg width="24" height="24" viewBox="0 0 24 24" id="ic_subscript_24px" y="48"><path d="M5.214 17.326l1.139-3.796h5.234l1.139 3.796h2.246l-3.796-12.652h-4.413l-3.796 12.652h2.246zM8.25 7.204h1.438l1.139 3.796h-3.716l1.139-3.796zM21.622 4.674l-3.163 5.061-3.163-5.061h6.326z"/><path d="M18.459 17.326h-1.265c-0.349 0-0.633-0.284-0.633-0.633s0.284-0.633 0.633-0.633h2.53c0.349 0 0.633-0.283 0.633-0.633s-0.283-0.633-0.633-0.633h-2.53c-1.046 0-1.898 0.851-1.898 1.898 0 0.486 0.184 0.929 0.485 1.265 0.348 0.388 0.852 0.633 1.413 0.633h1.265c0.349 0 0.633 0.284 0.633 0.633s-0.284 0.633-0.633 0.633h-2.53c-0.349 0-0.633 0.283-0.633 0.633s0.283 0.633 0.633 0.633h2.53c1.046 0 1.898-0.851 1.898-1.898 0-0.486-0.184-0.929-0.485-1.265-0.348-0.388-0.852-0.633-1.413-0.633z"/></svg><svg width="24" height="24" viewBox="0 0 24 24" id="ic_paragraph_24px" y="72"><path d="M10.040 3.659h7.841v1.96h-1.96v13.721h-1.96v-13.721h-1.96v13.721h-1.96v-7.841c-2.165 0-3.92-1.755-3.92-3.92s1.755-3.92 3.92-3.92z"/></svg><svg width="24" height="24" viewBox="0 0 24 24" id="ic_page_break_24px" y="96"><path d="M5 9v-6h14v6h-2v-4h-10v4h-2z"/><path d="M19 15v6h-14v-6h2v4h10v-4h2z"/><path d="M4 11h4v2h-4v-2z"/><path d="M10 11h4v2h-4v-2z"/><path d="M16 11h4v2h-4v-2z"/></svg><svg width="24" height="24" viewBox="0 0 24 24" id="ic_html_code_24px" y="120"><path d="M15.201 15.735l1.601 1.601 5.336-5.336-5.336-5.336-1.601 1.601 3.735 3.735z"/><path d="M8.799 8.265l-1.601-1.601-5.336 5.336 5.336 5.336 1.601-1.601-3.735-3.735z"/><path d="M13.022 5.973l1.158 0.316-3.201 11.739-1.158-0.316 3.201-11.739z"/></svg><svg id="ic_markdown_24px" width="24" height="24" viewBox="0 0 24 24" y="144"><path d="M20.5 5.8h-17c-0.8 0-1.4 0.6-1.4 1.4v9.6c0 0.8 0.6 1.4 1.4 1.4h17c0.8 0 1.4-0.6 1.4-1.4v-9.6c0.1-0.8-0.6-1.4-1.4-1.4zM13.2 15.7h-2.5v-3.7l-1.9 2.4-1.9-2.4v3.7h-2.5v-7.5h2.5l1.9 2.5 1.9-2.5h2.5v7.5zM17 16.4l-3.1-4.4h1.9v-3.7h2.5v3.7h1.9l-3.2 4.4z"></path>
</svg><svg id="ic_play_for_work_24px" width="24" height="24" viewBox="0 0 24 24" y="168"><path d="M11 5v5.59H7.5l4.5 4.5 4.5-4.5H13V5h-2zm-5 9c0 3.31 2.69 6 6 6s6-2.69 6-6h-2c0 2.21-1.79 4-4 4s-4-1.79-4-4H6z"/></svg><svg id="ic_build_24px" width="24" height="24" viewBox="0 0 24 24" y="192"><path d="M22.7 19l-9.1-9.1c.9-2.3.4-5-1.5-6.9-2-2-5-2.4-7.4-1.3L9 6 6 9 1.6 4.7C.4 7.1.9 10.1 2.9 12.1c1.9 1.9 4.6 2.4 6.9 1.5l9.1 9.1c.4.4 1 .4 1.4 0l2.3-2.3c.5-.4.5-1.1.1-1.4z"/></svg><svg id="ic_font_small_24px" width="24" height="24" viewBox="0 0 24 24" y="216"><path d="M3 12h3v7h3v-7h3v-3h-9v3z"/><path opacity="0.36" d="M9 4v3h5v12h3v-12h5v-3h-13z"/></svg><svg id="ic_font_big_24px" width="24" height="24" viewBox="0 0 24 24" y="240"><path opacity="0.36" d="M3 12h3v7h3v-7h3v-3h-9v3z"/><path d="M9 4v3h5v12h3v-12h5v-3h-13z"/></svg><svg id="ic_wifi_24px" width="24" height="24" viewBox="0 0 24 24" y="264"><path d="M1 9l2 2c4.97-4.97 13.03-4.97 18 0l2-2C16.93 2.93 7.08 2.93 1 9zm8 8l3 3 3-3c-1.65-1.66-4.34-1.66-6 0zm-4-4l2 2c2.76-2.76 7.24-2.76 10 0l2-2C15.14 9.14 8.87 9.14 5 13z"/></svg><svg id="ic_bubble_24px" width="24" height="24" viewBox="0 0 24 24" y="288"><path d="M20 2H4c-1.1 0-2 .9-2 2v18l4-4h14c1.1 0 2-.9 2-2V4c0-1.1-.9-2-2-2z"/></svg></svg>